M48
; DRILL file {KiCad 8.0.5} date 2024-11-30T19:19:10-0300
; FORMAT={-:-/ absolute / inch / decimal}
; #@! TF.CreationDate,2024-11-30T19:19:10-03:00
; #@! TF.GenerationSoftware,Kicad,Pcbnew,8.0.5
; #@! TF.FileFunction,Plated,1,2,PTH
FMAT,2
INCH
; #@! TA.AperFunction,Plated,PTH,ComponentDrill
T1C0.0197
; #@! TA.AperFunction,Plated,PTH,ComponentDrill
T2C0.0315
; #@! TA.AperFunction,Plated,PTH,ViaDrill
T3C0.0394
%
G90
G05
T1
X3.6091Y-4.2349
X3.7525Y-2.1451
X3.7587Y-4.2349
X3.7685Y-3.388
X3.7685Y-3.488
X3.7685Y-3.588
X3.7685Y-3.688
X3.7702Y-1.775
X3.8108Y-2.3369
X3.8108Y-2.4369
X3.8108Y-2.5369
X3.8108Y-2.6369
X3.8111Y-2.8063
X3.8111Y-2.9063
X3.8111Y-3.0731
X3.8111Y-3.1731
X3.8525Y-2.1451
X3.8685Y-3.388
X3.8685Y-3.488
X3.8685Y-3.588
X3.8685Y-3.688
X3.8702Y-1.775
X3.9053Y-4.5144
X3.9053Y-4.7144
X3.9057Y-5.1067
X3.9525Y-2.1451
X3.9702Y-1.775
X4.1053Y-4.5144
X4.1053Y-4.7144
X4.1057Y-5.1067
X4.1315Y-1.776
X4.1443Y-3.3556
X4.1443Y-3.4556
X4.1443Y-3.5556
X4.1443Y-3.6556
X4.1443Y-3.7556
X4.1443Y-3.8556
X4.1443Y-3.9556
X4.1443Y-4.0556
X4.1443Y-4.1556
X4.1443Y-4.2556
X4.2315Y-1.776
X4.3315Y-1.776
X4.4137Y-4.5026
X4.4315Y-1.776
X4.5137Y-4.5026
X4.5202Y-2.4711
X4.5202Y-2.5711
X4.5202Y-2.6711
X4.5202Y-2.7711
X4.5202Y-2.8711
X4.5202Y-2.9711
X4.5315Y-1.776
X4.9939Y-2.5955
X4.9939Y-2.6955
X4.9939Y-2.7955
X4.9939Y-2.8955
X4.9939Y-2.9955
X4.9939Y-3.0955
X4.9939Y-3.1955
X4.9939Y-3.2955
X4.9939Y-3.3955
X4.9939Y-3.4955
X4.9939Y-3.5955
X4.9939Y-3.6955
X4.9939Y-3.7955
X4.9939Y-3.8955
X4.9939Y-3.9955
X5.8508Y-5.1638
X5.9508Y-5.1638
X5.9939Y-2.6955
X5.9939Y-2.7955
X5.9939Y-2.8955
X5.9939Y-2.9955
X5.9939Y-3.0955
X5.9939Y-3.1955
X5.9939Y-3.2955
X5.9939Y-3.3955
X5.9939Y-3.4955
X5.9939Y-3.5955
X5.9939Y-3.6955
X5.9939Y-3.7955
X5.9939Y-3.8955
X5.9939Y-3.9955
X6.0508Y-5.1638
X6.1626Y-1.9894
X6.1626Y-2.0894
X6.1626Y-2.1894
X6.1626Y-2.2894
X6.2756Y-5.1677
X6.3756Y-5.1677
X6.386Y-2.2888
X6.386Y-2.4325
X6.388Y-1.9768
X6.388Y-2.1215
X6.4756Y-5.1677
X6.486Y-2.2888
X6.486Y-2.4325
X6.488Y-1.9768
X6.488Y-2.1215
X6.7689Y-1.902
X6.7689Y-2.0004
X6.8673Y-1.902
X6.8673Y-2.0004
X6.9657Y-1.902
X6.9657Y-2.0004
X6.9939Y-4.178
X6.9939Y-4.278
X6.9972Y-2.7626
X6.9972Y-2.8626
X7.0057Y-3.43
X7.0057Y-3.53
X7.0642Y-1.902
X7.0642Y-2.0004
X7.0831Y-5.1441
X7.0833Y-4.6394
X7.0833Y-4.9394
X7.1626Y-1.902
X7.1626Y-2.0004
X7.1831Y-5.1441
X7.1833Y-4.6394
X7.1833Y-4.9394
X7.2335Y-2.4608
X7.2335Y-2.8608
X7.2419Y-3.1203
X7.2419Y-3.5203
X7.2419Y-3.8683
X7.2419Y-4.2683
X7.2833Y-4.6394
X7.2833Y-4.9394
X7.4828Y-1.9837
X7.5588Y-2.5762
X7.5588Y-3.3203
X7.5588Y-4.0683
X7.6356Y-2.342
X7.6356Y-2.8144
X7.6356Y-3.0861
X7.6356Y-3.5585
X7.6356Y-3.8341
X7.6356Y-4.3065
X7.6828Y-1.9837
X7.7628Y-5.1441
X7.7717Y-4.6394
X7.8628Y-5.1441
X7.8717Y-4.6394
X7.8717Y-4.9394
X7.9159Y-1.9837
X7.9717Y-4.6394
X7.9717Y-4.9394
X8.1159Y-1.9837
X8.1159Y-2.8144
X8.1159Y-3.5585
X8.1159Y-4.3065
X8.1179Y-2.34
X8.1179Y-3.0841
X8.1179Y-3.8321
X8.3521Y-1.9837
X8.4124Y-5.1441
X8.4219Y-4.6197
X8.5096Y-2.3711
X8.5096Y-2.5711
X8.5096Y-2.7711
X8.5096Y-3.1254
X8.5096Y-3.3254
X8.5096Y-3.5254
X8.5096Y-3.8703
X8.5096Y-4.0703
X8.5096Y-4.2703
X8.5124Y-5.1441
X8.5219Y-4.6197
X8.5219Y-4.9197
X8.5521Y-1.9837
X8.6219Y-4.6197
X8.6219Y-4.9197
T2
X5.9939Y-2.5955
X7.7717Y-4.9394
X8.4219Y-4.9197
T3
X4.8651Y-4.0931
X5.5445Y-3.0156
X6.4303Y-3.7445
X6.4785Y-3.9644
M30
